<?xml version="1.0" encoding="UTF-8"?>
<svg xmlns="http://www.w3.org/2000/svg" viewBox="0 0 1947.16 797.57">
  <defs>
    <style>
      .cls-1 {
        letter-spacing: 0em;
      }

      .cls-2 {
        letter-spacing: 0em;
      }

      .cls-3, .cls-4 {
        fill: #27364a;
      }

      .cls-5 {
        letter-spacing: 0em;
      }

      .cls-6 {
        letter-spacing: -.08em;
      }

      .cls-7 {
        letter-spacing: 0em;
      }

      .cls-4 {
        font-family: MyriadConceptRoman-Bold, 'Myriad Variable Concept';
        font-size: 317.49px;
        font-variation-settings: 'wght' 700, 'wdth' 100;
        font-weight: 700;
      }

      .cls-8 {
        fill: #006ce5;
      }
    </style>
  </defs>
  <g id="Shield">
    <g>
      <path class="cls-8" d="M501.61,683.12l-41.03,24.6c-4.09,2.45-9.32,1.81-12.68-1.57l-28.19-28.19c-3.37-3.37-4.01-8.6-1.56-12.68l24.6-41.02c-6.26-11.03-11.14-22.79-14.53-35.01l-46.37-11.6c-4.62-1.16-7.86-5.31-7.86-10.07v-39.87c0-4.76,3.24-8.92,7.86-10.07l46.37-11.61c3.39-12.22,8.27-23.98,14.53-35.01l-24.6-41.02c-2.45-4.09-1.81-9.32,1.56-12.68l28.19-28.19c3.37-3.37,8.6-4.02,12.68-1.56l41.03,24.6c11.03-6.26,22.78-11.14,35-14.53l11.61-46.37c1.16-4.62,5.31-7.86,10.07-7.86h39.87c4.76,0,8.92,3.24,10.07,7.86l11.61,46.37c12.22,3.39,23.98,8.27,35,14.53l41.03-24.6c4.09-2.45,9.32-1.81,12.68,1.56l3.55,3.55c22.68-69.53,34.77-143.09,34.89-218.36,0-12.81-.52-25.11-1.15-39.4l-1.74-39.92h-39.96c-108.73.11-215.57-28.47-309.73-82.85l-20.93-12.13-20.93,12.13c-94.16,54.38-200.99,82.95-309.73,82.85l-40.02,1.53-1.74,39.91c-.56,12.78-1.08,25.07-1.08,37.89.42,251.96,134.7,484.71,352.61,611.19l20.89,12.08,20.89-12.08c45.91-26.65,88.09-58.03,126.11-93.29-6.49-2.6-12.8-5.62-18.89-9.07Z"/>
      <path class="cls-3" d="M578.23,454.17c-51.62,0-93.47,41.85-93.47,93.47,0,49.04,37.77,89.26,85.8,93.16,35.81-40.71,66.76-85.32,92.29-132.89-14.94-31.75-47.21-53.74-84.62-53.74Z"/>
    </g>
  </g>
  <g id="Layer_2" data-name="Layer 2">
    <text class="cls-4" transform="translate(783.16 321.97) scale(1.1 1)"><tspan class="cls-6" x="0" y="0">T</tspan><tspan class="cls-2" x="148.26" y="0">o</tspan><tspan x="332.4" y="0">oling</tspan><tspan class="cls-7" x="0" y="380.98">H</tspan><tspan x="217.8" y="380.98">e</tspan><tspan class="cls-1" x="385.43" y="380.98">r</tspan><tspan class="cls-5" x="503.53" y="380.98">o</tspan></text>
  </g>
</svg>